<?xml version="1.0" encoding="UTF-8"?>
<svg id="Layer_2" data-name="Layer 2" xmlns="http://www.w3.org/2000/svg" viewBox="0 0 43.69 57.1">
  <defs>
    <style>
      .cls-1 {
        fill: #fff;
        stroke-width: 0px;
      }
    </style>
  </defs>
  <g id="Layer_2-2" data-name="Layer 2">
    <path class="cls-1" d="M37.35,10.35h-3.21v17.52c0,.56-.32,1.07-.82,1.32-.5.25-1.1.19-1.54-.16l-4.37-3.36-4.37,3.36c-.44.34-1.04.4-1.54.16-.5-.25-.82-.76-.82-1.32V10.35H7.04c-.92,0-1.74-.37-2.34-.97-.6-.61-.97-1.42-.97-2.34s.37-1.74.97-2.34c.6-.6,1.42-.97,2.34-.97h29.67c1.03,0,1.86-.83,1.86-1.86s-.83-1.86-1.86-1.86H7.04c-1.94,0-3.71.79-4.98,2.06C.79,3.33,0,5.1,0,7.04v45.46c0,2.54,2.06,4.6,4.6,4.6h32.75c3.5,0,6.34-2.84,6.34-6.34V16.69c0-3.5-2.84-6.34-6.34-6.34Z"/>
  </g>
</svg>