<?xml version="1.0" encoding="utf-8"?>
<!-- Generator: Adobe Illustrator 28.1.0, SVG Export Plug-In . SVG Version: 6.00 Build 0)  -->
<svg version="1.1" id="Layer_2_00000054986177660803516360000016843960771912167584_"
	 xmlns="http://www.w3.org/2000/svg" xmlns:xlink="http://www.w3.org/1999/xlink" x="0px" y="0px" viewBox="0 0 45.6 46.3"
	 style="enable-background:new 0 0 45.6 46.3;" xml:space="preserve">
<style type="text/css">
	.st0{fill:#FFFFFF;}
</style>
<g id="Layer_2-2">
	<g>
		<path class="st0" d="M14.6,8.1c1.3,0,2.3-1,2.3-2.3V2.3c0-1.3-1-2.3-2.3-2.3s-2.3,1-2.3,2.3v3.6C12.3,7.1,13.3,8.1,14.6,8.1z"/>
		<path class="st0" d="M31.3,8.1c1.3,0,2.3-1,2.3-2.3V2.3c0-1.3-1-2.3-2.3-2.3S29,1,29,2.3v3.6C29,7.1,30.1,8.1,31.3,8.1z"/>
		<path class="st0" d="M39.2,3.2h-3.6v2.6c0,2.4-1.9,4.3-4.3,4.3S27,8.2,27,5.8V3.2h-8.2v2.6c0,2.4-1.9,4.3-4.3,4.3
			s-4.3-1.9-4.3-4.3V3.2H6.4C2.9,3.2,0,6.1,0,9.6V40c0,3.5,2.9,6.4,6.4,6.4h32.8c3.5,0,6.4-2.9,6.4-6.4V9.6
			C45.6,6.1,42.7,3.2,39.2,3.2z M42.5,40c0,1.8-1.5,3.3-3.3,3.3H6.4c-1.8,0-3.3-1.5-3.3-3.3V13.7h39.4V40L42.5,40z"/>
		<rect x="15.5" y="34.6" class="st0" width="5.8" height="5.8"/>
		<rect x="15.5" y="25.7" class="st0" width="5.8" height="5.8"/>
		<rect x="6.5" y="34.6" class="st0" width="5.8" height="5.8"/>
		<rect x="6.5" y="25.7" class="st0" width="5.8" height="5.8"/>
		<rect x="33.3" y="16.8" class="st0" width="5.8" height="5.8"/>
		<rect x="24.4" y="16.8" class="st0" width="5.8" height="5.8"/>
		<rect x="24.4" y="25.7" class="st0" width="5.8" height="5.8"/>
		<rect x="33.3" y="25.7" class="st0" width="5.8" height="5.8"/>
		<rect x="24.4" y="34.6" class="st0" width="5.8" height="5.8"/>
		<rect x="15.5" y="16.8" class="st0" width="5.8" height="5.8"/>
	</g>
</g>
</svg>
