<?xml version="1.0" encoding="UTF-8"?>
<svg id="Layer_2" data-name="Layer 2" xmlns="http://www.w3.org/2000/svg" viewBox="0 0 45.59 46.34">
  <defs>
    <style>
      .cls-1 {
        fill: #023187;
        stroke-width: 0px;
      }
    </style>
  </defs>
  <g id="Layer_2-2" data-name="Layer 2">
    <g>
      <path class="cls-1" d="M14.55,8.13c1.26,0,2.27-1.02,2.27-2.27v-3.58c0-1.26-1.02-2.27-2.27-2.27s-2.27,1.02-2.27,2.27v3.58c0,1.26,1.02,2.27,2.27,2.27Z"/>
      <path class="cls-1" d="M31.32,8.13c1.26,0,2.27-1.02,2.27-2.27v-3.58c0-1.26-1.02-2.27-2.27-2.27s-2.27,1.02-2.27,2.27v3.58c0,1.26,1.02,2.27,2.27,2.27Z"/>
      <path class="cls-1" d="M39.2,3.24h-3.61v2.61c0,2.36-1.92,4.27-4.27,4.27s-4.27-1.92-4.27-4.27v-2.61h-8.23v2.61c0,2.36-1.92,4.27-4.27,4.27s-4.27-1.92-4.27-4.27v-2.61h-3.89C2.86,3.24,0,6.1,0,9.63v30.33c0,3.53,2.86,6.39,6.39,6.39h32.81c3.53,0,6.39-2.86,6.39-6.39V9.63c0-3.53-2.86-6.39-6.39-6.39ZM42.48,39.95c0,1.81-1.47,3.28-3.28,3.28H6.39c-1.81,0-3.28-1.47-3.28-3.28V13.67h39.37v26.29Z"/>
      <rect class="cls-1" x="15.46" y="34.62" width="5.76" height="5.76"/>
      <rect class="cls-1" x="15.46" y="25.7" width="5.76" height="5.76"/>
      <rect class="cls-1" x="6.54" y="34.62" width="5.75" height="5.76"/>
      <rect class="cls-1" x="6.54" y="25.7" width="5.75" height="5.76"/>
      <rect class="cls-1" x="33.3" y="16.78" width="5.76" height="5.75"/>
      <rect class="cls-1" x="24.38" y="16.78" width="5.76" height="5.75"/>
      <rect class="cls-1" x="24.38" y="25.7" width="5.76" height="5.76"/>
      <rect class="cls-1" x="33.3" y="25.7" width="5.76" height="5.76"/>
      <rect class="cls-1" x="24.38" y="34.62" width="5.76" height="5.76"/>
      <rect class="cls-1" x="15.46" y="16.78" width="5.76" height="5.75"/>
    </g>
  </g>
</svg>