<?xml version="1.0" encoding="UTF-8"?>
<svg id="Layer_2" data-name="Layer 2" xmlns="http://www.w3.org/2000/svg" viewBox="0 0 472.65 47.06">
  <defs>
    <style>
      .cls-1 {
        fill: none;
      }

      .cls-1, .cls-2, .cls-3, .cls-4 {
        stroke-width: 0px;
      }

      .cls-3 {
        fill: #023187;
      }

      .cls-4 {
        fill: #019cdf;
      }
    </style>
  </defs>
  <g id="desk_top" data-name="desk top">
    <g>
      <g>
        <g>
          <path class="cls-1" d="M356.3,21.55c-3.8,0-6.75,3.05-6.75,6.84,0,3.05,2.12,4.67,4.98,4.67,3.83,0,6.84-2.89,6.84-6.69,0-3.05-2.18-4.82-5.07-4.82Z"/>
          <path class="cls-3" d="M369.52,15.8h-5.91c-1.18,0-1.24,1.71-1.31,2.55-1.8-2.64-4.42-3.11-7.37-3.11-7.62,0-13.44,6.69-13.44,14.06,0,6.07,3.8,10.02,9.86,10.02,2.8,0,6.28-1.52,8.24-3.7-.16.47-.31,1.46-.31,1.93,0,.72.31,1.24,1,1.24h5.35c.84,0,1.56-.9,1.71-1.77l3.17-20c.09-.59-.37-1.21-1-1.21ZM354.53,33.06c-2.86,0-4.98-1.62-4.98-4.67,0-3.8,2.96-6.84,6.75-6.84,2.89,0,5.07,1.77,5.07,4.82,0,3.8-3.02,6.69-6.84,6.69Z"/>
          <path class="cls-3" d="M402.1,16.92c0-.53-.47-1.09-1-1.09h-5.97c-.53,0-1.09.31-1.4.78l-8.24,12.13-3.42-11.67c-.25-.68-.93-1.24-1.71-1.24h-5.82c-.53,0-1,.56-1,1.09,0,.37,6.07,17.67,6.6,19.32-.84,1.18-6.38,8.9-6.38,9.83,0,.56.47,1,1,1h5.97c.56-.03,1.09-.34,1.4-.81l19.82-28.81c.16-.16.16-.31.16-.53Z"/>
          <path class="cls-3" d="M332.53,4.35h-12.44c-.78,0-1.56.62-1.62,1.46l-5.1,31.76c-.09.62.37,1.24,1,1.24h5.91c.84,0,1.62-.9,1.71-1.77l1.4-8.28c.31-2.24,4.11-1.46,5.6-1.46,8.9,0,14.34-5.29,14.34-14.25,0-6.53-5.04-8.71-10.8-8.71ZM327.21,20.34l-2.55.09,1.34-8.31c.06-.53.53-.84,1-.84h1.46c3.52,0,6.16.47,5.44,4.64-.62,3.95-3.27,4.42-6.69,4.42Z"/>
          <path class="cls-4" d="M420.89,4.35h-12.35c-.84,0-1.62.62-1.71,1.46l-5.04,31.73c-.06.62.4,1.24,1,1.24h6.38c.62,0,1.09-.47,1.24-1l1.4-9.02c.31-2.24,4.11-1.46,5.6-1.46,8.84,0,14.28-5.29,14.28-14.25,0-6.53-5.04-8.71-10.8-8.71ZM415.6,20.34l-2.49.09,1.31-8.31c.06-.53.44-.84,1-.84h1.4c2.64,0,5.6.16,5.63,3.45,0,4.67-2.8,5.6-6.84,5.6Z"/>
          <path class="cls-4" d="M471.66,4.35h-5.76c-.47,0-.93.37-1,.84l-5.04,32.36-.09.16c0,.56.47,1.09,1.09,1.09h5.13c.78,0,1.56-.9,1.62-1.77l5.04-31.48v-.09c0-.62-.47-1.09-1-1.09Z"/>
          <path class="cls-4" d="M457.88,15.8h-5.91c-1.18,0-1.24,1.71-1.34,2.55-1.71-2.64-4.36-3.11-7.37-3.11-7.62,0-13.44,6.69-13.44,14.06,0,6.07,3.8,10.02,9.86,10.02,2.89,0,6.38-1.52,8.24-3.7-.09.47-.31,1.46-.31,1.93,0,.72.31,1.24,1,1.24h5.38c.84,0,1.56-.9,1.71-1.77l3.17-20c.09-.59-.37-1.21-1-1.21ZM442.94,33.06c-2.86,0-5.04-1.65-5.04-4.67,0-3.83,2.96-6.84,6.75-6.84,2.89,0,5.07,1.77,5.04,4.82,0,3.83-3.02,6.69-6.75,6.69Z"/>
        </g>
        <g>
          <path class="cls-4" d="M297.98,11.89c-.17-.13-.24-.17-.29.13-.19,1.1-.49,2.18-.85,3.26-3.87,11.03-14.59,10.07-19.82,10.07-.59,0-.98.32-1.06.91-2.19,13.61-2.63,16.45-2.63,16.45-.1.69.34,1.25,1.03,1.25h6.15c.83,0,1.52-.61,1.69-1.44.07-.52-.11.59,1.4-8.85.45-2.13,1.39-1.91,2.84-1.91,6.88,0,12.25-2.79,13.85-10.88.63-3.37.45-6.92-2.31-8.97Z"/>
          <path class="cls-3" d="M274.17,25.84c-.34,1.86-1.69,10.54-2.08,12.99-.03.17-.1.24-.29.24h-7.23c-.74,0-1.27-.64-1.17-1.35l5.68-36.04c.15-.93.98-1.64,1.94-1.64,14.76,0,16-.36,19.77,1.1,5.82,2.26,6.36,7.71,4.26,13.6-2.08,6.07-7.03,8.67-13.58,8.75-4.21.07-6.74-.68-7.3,2.35Z"/>
        </g>
      </g>
      <g>
        <path class="cls-2" d="M11.22,35.26c-1.6,0-3.09-.26-4.46-.79-1.37-.53-2.56-1.28-3.57-2.25-1.01-.97-1.8-2.12-2.35-3.43-.56-1.32-.84-2.76-.84-4.32s.28-3,.84-4.32c.56-1.32,1.35-2.46,2.37-3.43s2.21-1.72,3.57-2.25c1.36-.53,2.85-.79,4.47-.79,1.72,0,3.29.29,4.71.88s2.62,1.46,3.6,2.62l-2.52,2.37c-.76-.82-1.61-1.44-2.55-1.85-.94-.41-1.96-.61-3.06-.61s-2.1.18-3.02.54c-.91.36-1.7.87-2.37,1.53-.67.66-1.19,1.44-1.56,2.34-.37.9-.56,1.89-.56,2.97s.18,2.07.56,2.97c.37.9.89,1.68,1.56,2.34.67.66,1.46,1.17,2.37,1.53.91.36,1.92.54,3.02.54s2.12-.21,3.06-.62c.94-.41,1.79-1.03,2.55-1.88l2.52,2.4c-.98,1.14-2.18,2.01-3.6,2.61-1.42.6-3,.9-4.74.9Z"/>
        <path class="cls-2" d="M32.04,18.76c1.28,0,2.42.25,3.44.75,1.01.5,1.8,1.27,2.39,2.29.58,1.03.87,2.36.87,3.98v9.18h-3.75v-8.7c0-1.42-.34-2.48-1.01-3.18-.67-.7-1.6-1.05-2.8-1.05-.88,0-1.66.18-2.34.54-.68.36-1.21.89-1.57,1.6-.37.71-.56,1.61-.56,2.69v8.1h-3.75V12.7h3.75v10.56l-.81-1.32c.56-1.02,1.38-1.8,2.45-2.36,1.07-.55,2.3-.83,3.7-.83Z"/>
        <path class="cls-2" d="M51.06,35.17c-1.78,0-3.34-.35-4.67-1.07-1.33-.71-2.36-1.68-3.09-2.92-.73-1.24-1.09-2.65-1.09-4.23s.35-3.02,1.06-4.25c.71-1.23,1.69-2.19,2.94-2.9,1.25-.7,2.67-1.05,4.27-1.05s2.95.34,4.17,1.02c1.22.68,2.18,1.64,2.88,2.88.7,1.24,1.05,2.7,1.05,4.38,0,.16,0,.34-.02.54-.01.2-.03.39-.04.57h-13.35v-2.49h11.37l-1.47.78c.02-.92-.17-1.73-.57-2.43-.4-.7-.94-1.25-1.63-1.65s-1.49-.6-2.39-.6-1.73.2-2.42.6-1.23.96-1.62,1.67c-.39.71-.58,1.54-.58,2.5v.6c0,.96.22,1.81.66,2.55.44.74,1.06,1.31,1.86,1.71.8.4,1.72.6,2.76.6.9,0,1.71-.14,2.43-.42.72-.28,1.36-.72,1.92-1.32l2.01,2.31c-.72.84-1.62,1.49-2.71,1.94-1.09.45-2.34.67-3.73.67Z"/>
        <path class="cls-2" d="M69.54,35.17c-1.68,0-3.18-.35-4.48-1.07-1.31-.71-2.34-1.68-3.08-2.92-.74-1.24-1.11-2.65-1.11-4.23s.37-3.02,1.11-4.25c.74-1.23,1.76-2.19,3.08-2.9,1.31-.7,2.8-1.05,4.48-1.05,1.56,0,2.93.32,4.12.95,1.19.63,2.09,1.56,2.71,2.77l-2.88,1.68c-.48-.76-1.06-1.32-1.75-1.68-.69-.36-1.44-.54-2.24-.54-.92,0-1.75.2-2.49.6-.74.4-1.32.97-1.74,1.72-.42.75-.63,1.65-.63,2.69s.21,1.93.63,2.68c.42.75,1,1.33,1.74,1.73.74.4,1.57.6,2.49.6.8,0,1.55-.18,2.24-.54s1.27-.92,1.75-1.68l2.88,1.68c-.62,1.2-1.53,2.12-2.71,2.78-1.19.65-2.56.97-4.12.97Z"/>
        <path class="cls-2" d="M79.47,34.96V12.7h3.75v22.26h-3.75ZM82.53,31.39l.09-4.71,8.37-7.74h4.5l-7.11,7.14-1.98,1.65-3.87,3.66ZM91.56,34.96l-5.85-7.23,2.37-3,8.04,10.23h-4.56Z"/>
        <path class="cls-2" d="M114.03,35.17c-1.64,0-3.1-.35-4.38-1.07-1.28-.71-2.29-1.68-3.03-2.92-.74-1.24-1.11-2.65-1.11-4.23s.37-3.02,1.11-4.25c.74-1.23,1.75-2.19,3.03-2.9,1.28-.7,2.74-1.05,4.38-1.05s3.13.35,4.42,1.05c1.29.7,2.3,1.66,3.03,2.88.73,1.22,1.09,2.64,1.09,4.26s-.37,2.99-1.09,4.23c-.73,1.24-1.74,2.22-3.03,2.92-1.29.71-2.77,1.07-4.42,1.07ZM114.03,31.96c.92,0,1.74-.2,2.46-.6.72-.4,1.28-.98,1.69-1.74.41-.76.62-1.65.62-2.67s-.21-1.94-.62-2.69c-.41-.75-.98-1.32-1.69-1.72-.72-.4-1.53-.6-2.43-.6s-1.74.2-2.44.6c-.71.4-1.27.97-1.7,1.72-.42.75-.63,1.65-.63,2.69s.21,1.91.63,2.67c.42.76.98,1.34,1.7,1.74.71.4,1.51.6,2.42.6Z"/>
        <path class="cls-2" d="M132.96,35.17c-1.36,0-2.56-.25-3.6-.76-1.04-.51-1.85-1.29-2.43-2.34-.58-1.05-.87-2.38-.87-3.98v-9.15h3.75v8.64c0,1.44.33,2.52.98,3.22.65.71,1.58,1.07,2.77,1.07.88,0,1.65-.18,2.29-.54s1.16-.9,1.53-1.62c.37-.72.56-1.61.56-2.67v-8.1h3.75v16.02h-3.57v-4.32l.63,1.32c-.54,1.04-1.33,1.83-2.37,2.38-1.04.55-2.18.83-3.42.83Z"/>
        <path class="cls-2" d="M144.48,22.06v-3h10.68v3h-10.68ZM152.64,35.17c-1.76,0-3.12-.46-4.08-1.37-.96-.91-1.44-2.25-1.44-4.04v-14.37h3.75v14.28c0,.76.19,1.35.58,1.77.39.42.93.63,1.63.63.84,0,1.54-.22,2.1-.66l1.05,2.67c-.44.36-.98.63-1.62.81-.64.18-1.3.27-1.98.27Z"/>
        <path class="cls-2" d="M171.15,34.96l-5.88-16.02h3.54l5.04,14.13h-1.68l5.28-14.13h3.15l5.13,14.13h-1.65l5.19-14.13h3.33l-5.91,16.02h-3.6l-4.68-12.51h1.11l-4.77,12.51h-3.6Z"/>
        <path class="cls-2" d="M197.07,16.3c-.7,0-1.27-.22-1.73-.66-.45-.44-.67-.97-.67-1.59s.22-1.17.67-1.61c.45-.43,1.02-.64,1.73-.64s1.27.21,1.73.62c.45.41.67.92.67,1.54,0,.66-.22,1.21-.66,1.67s-1.02.67-1.74.67ZM195.18,34.96v-16.02h3.75v16.02h-3.75Z"/>
        <path class="cls-2" d="M201.72,22.06v-3h10.68v3h-10.68ZM209.88,35.17c-1.76,0-3.12-.46-4.08-1.37-.96-.91-1.44-2.25-1.44-4.04v-14.37h3.75v14.28c0,.76.19,1.35.58,1.77.39.42.93.63,1.63.63.84,0,1.54-.22,2.1-.66l1.05,2.67c-.44.36-.98.63-1.62.81-.64.18-1.3.27-1.98.27Z"/>
        <path class="cls-2" d="M225.66,18.76c1.28,0,2.42.25,3.44.75,1.01.5,1.8,1.27,2.39,2.29.58,1.03.87,2.36.87,3.98v9.18h-3.75v-8.7c0-1.42-.34-2.48-1.01-3.18-.67-.7-1.6-1.05-2.8-1.05-.88,0-1.66.18-2.34.54-.68.36-1.21.89-1.57,1.6-.37.71-.56,1.61-.56,2.69v8.1h-3.75V12.7h3.75v10.56l-.81-1.32c.56-1.02,1.38-1.8,2.45-2.36,1.07-.55,2.3-.83,3.7-.83Z"/>
      </g>
    </g>
  </g>
</svg>