<?xml version="1.0" encoding="utf-8"?>
<!-- Generator: Adobe Illustrator 28.1.0, SVG Export Plug-In . SVG Version: 6.00 Build 0)  -->
<svg version="1.1" id="Layer_2_00000013914708095790271910000014112147339132205234_"
	 xmlns="http://www.w3.org/2000/svg" xmlns:xlink="http://www.w3.org/1999/xlink" x="0px" y="0px" viewBox="0 0 41.1 45.8"
	 style="enable-background:new 0 0 41.1 45.8;" xml:space="preserve">
<style type="text/css">
	.st0{fill:#FFFFFF;}
</style>
<g id="Layer_2-2">
	<g>
		<path class="st0" d="M29.1,18.3c5,0,9.1-4.1,9.1-9.1S34.2,0,29.1,0S20,4.1,20,9.1S24.1,18.3,29.1,18.3L29.1,18.3z"/>
		<path class="st0" d="M9,8.8c-3.8,0-6.8,3.1-6.8,6.8s3,6.8,6.8,6.8s6.8-3,6.8-6.8S12.8,8.8,9,8.8z"/>
		<path class="st0" d="M0,29.9V35c0,4.3,3.5,7.9,7.9,7.9h6.4V28l0.1-0.3c0.1-0.6,0.4-1.2,0.6-1.9c-1.4-1.1-3.4-1.9-6.1-1.9
			C3.3,23.9,0.5,27.7,0,29.9L0,29.9z"/>
		<path class="st0" d="M29.1,20.4c-7.6,0-11.3,5-12,8v13.1c0,2.4,1.9,4.3,4.3,4.3h15.4c2.4,0,4.3-1.9,4.3-4.3V28.4
			C40.5,25.4,36.7,20.4,29.1,20.4L29.1,20.4z"/>
	</g>
</g>
</svg>
