<?xml version="1.0" encoding="UTF-8"?>
<svg id="Layer_2" data-name="Layer 2" xmlns="http://www.w3.org/2000/svg" viewBox="0 0 41.11 45.78">
  <defs>
    <style>
      .cls-1 {
        fill: #023187;
        stroke-width: 0px;
      }
    </style>
  </defs>
  <g id="Layer_2-2" data-name="Layer 2">
    <g>
      <path class="cls-1" d="M29.14,18.27c5.05,0,9.14-4.09,9.14-9.14S34.19,0,29.14,0s-9.14,4.09-9.14,9.14c0,5.05,4.09,9.14,9.14,9.14Z"/>
      <path class="cls-1" d="M9,8.75c-3.76,0-6.81,3.05-6.81,6.81s3.05,6.81,6.81,6.81,6.81-3.05,6.81-6.81-3.05-6.81-6.81-6.81Z"/>
      <path class="cls-1" d="M0,29.89v5.14c0,4.34,3.52,7.86,7.86,7.86h6.42v-14.84l.06-.29c.13-.6.35-1.24.65-1.91-1.45-1.09-3.45-1.9-6.07-1.9-5.64,0-8.46,3.76-8.93,5.95Z"/>
      <path class="cls-1" d="M29.14,20.37c-7.56,0-11.34,5.04-11.97,7.98v13.15c0,2.37,1.92,4.29,4.29,4.29h15.37c2.37,0,4.29-1.92,4.29-4.29v-13.15c-.63-2.94-4.41-7.98-11.97-7.98Z"/>
    </g>
  </g>
</svg>