<?xml version="1.0" encoding="utf-8"?>
<!-- Generator: Adobe Illustrator 28.1.0, SVG Export Plug-In . SVG Version: 6.00 Build 0)  -->
<svg version="1.1" id="Layer_2_00000158002553691535861850000004770146527813583537_"
	 xmlns="http://www.w3.org/2000/svg" xmlns:xlink="http://www.w3.org/1999/xlink" x="0px" y="0px" viewBox="0 0 35.9 43.8"
	 style="enable-background:new 0 0 35.9 43.8;" xml:space="preserve">
<style type="text/css">
	.st0{fill:#FFFFFF;}
</style>
<g id="Layer_2-2">
	<g>
		<path class="st0" d="M8.2,1.4c11.4,2.1,11.1,7.8,20.6,7c3.2,0,6.4-1.7,7-1.1c0.5,0.5-3.5,10.9-10.6,13.9
			c-5.7,2.4-13.4,2.6-17.1,0.2L8.2,1.4C8.2,1.4,8.2,1.4,8.2,1.4z"/>
		<path class="st0" d="M2.7,43.8c-1.5,0-2.7-1.2-2.7-2.7V2.7C0,1.2,1.2,0,2.7,0s2.7,1.2,2.7,2.7v38.3C5.5,42.6,4.2,43.8,2.7,43.8z"
			/>
	</g>
</g>
</svg>
